<svg width="100" height="35" viewBox="0 0 100 35" fill="none" xmlns="http://www.w3.org/2000/svg">
<mask id="mask0_2225_8115" style="mask-type:luminance" maskUnits="userSpaceOnUse" x="0" y="0" width="54" height="23">
<path d="M53.1194 0H0V22.1982H53.1194V0Z" fill="white"/>
</mask>
<g mask="url(#mask0_2225_8115)">
<path d="M37.6047 16.9984C37.6047 20.4037 35.8832 22.1888 33.2456 22.1888C30.8553 22.1888 29.4564 20.2436 29.487 18.1147C29.5176 16.4614 30.7257 15.6325 31.7148 15.762C32.4143 15.8562 33.1161 16.3696 33.0219 17.4835C32.93 19.0755 31.2085 19.0119 31.1449 19.9986C31.0837 20.6062 31.875 21.4964 32.897 21.4964C34.6821 21.4964 34.6821 19.2356 34.6821 17.5141V2.06769C34.6821 1.17514 34.3972 0.920805 33.6977 0.760665L32.9041 0.567555V0.129525H39.1778V0.57462L38.4784 0.76773C37.8402 0.927869 37.6165 1.21282 37.6165 2.10537L37.6047 16.9984ZM23.8185 22.1888C21.9722 22.1888 21.3364 20.9124 20.7288 20.9124C20.3755 20.9124 19.9681 21.0042 19.6455 22.0569H19.2616V14.7988H19.7397C20.1235 18.9036 21.6472 21.4823 23.7832 21.4823C25.2127 21.4823 26.2041 20.1753 26.2041 17.8226C26.2041 12.8559 19.1085 10.727 19.1085 5.22103C19.1085 2.2608 20.6063 0 23.3075 0C25.0596 0 25.4058 1.14453 26.1382 1.14453C26.5527 1.14453 26.8376 0.82896 27.0001 0.129525H27.384V7.38763H26.9083C26.5244 3.72796 25.5706 0.7065 23.2792 0.7065C21.6872 0.7065 21.4023 2.29848 21.4023 3.38178C21.4023 8.12475 28.5003 9.74734 28.5003 16.3672C28.5073 19.7372 26.661 22.1888 23.8256 22.1888H23.8185ZM1.47665 3.05208C1.05981 1.17514 0.967968 0.854865 0.360378 0.699435L-0.0847168 0.576975V0.129525H5.5508V0.57462L5.07509 0.666465C4.06008 0.89019 4.15193 1.90519 4.43688 3.27345L6.95202 15.7526L8.79598 5.8192L8.12716 2.41387C7.87282 1.20576 7.77391 0.821895 7.14278 0.661755L6.72829 0.57462V0.129525H12.5546V0.57462L11.8551 0.704145C10.8024 0.8949 10.9626 2.04178 11.2169 3.28051L13.6379 15.7597L16.0282 3.95169C16.4733 1.50013 16.2519 0.89961 15.2981 0.7065L14.6293 0.576975V0.129525H18.6728V0.57462L18.2278 0.73476C17.5896 0.958484 17.4294 1.56372 16.989 3.66438L13.1056 22.1935H12.2767L9.28582 7.73853L6.57993 22.1912H5.52725L1.47665 3.05208Z" fill="#2B2A2F"/>
</g>
<path d="M99.9534 0.128906H42.084V21.8326H99.9534V0.128906Z" fill="#E92440"/>
<path d="M55.6675 8.67863L53.5739 15.8543H51.5321L49.0005 6.20117H50.9575L52.6413 13.431L54.6972 6.20117H56.7367L58.762 13.431L60.4599 6.20117H62.351L59.817 15.8543H57.7634L55.6675 8.67863Z" fill="white"/>
<path d="M68.5494 6.20117H66.7148V15.786H68.5494V6.20117Z" fill="white"/>
<path d="M75.1457 15.786H73.3936V6.20117H75.4471L79.3352 12.8281V6.20117H81.0873V15.786H79.0903L75.1457 9.04837V15.786Z" fill="white"/>
<path d="M85.9385 15.786V6.20117H92.6337V7.83083H87.773V10.0634H92.085V11.6907H87.773V14.1564H92.7162V15.786H85.9385Z" fill="white"/>
<path d="M14.6058 34.0292H10.3405V33.717H10.5672C10.8495 33.717 11.0166 33.5838 11.0166 33.2417V26.4769C11.0166 26.1349 10.8495 25.9977 10.5672 25.9977H10.3405V25.6835H14.6058V28.5529H14.3215V28.5211C14.3215 26.8229 13.8064 26.0494 12.8639 26.0494H12.1639V29.5133H12.3409C12.8738 29.5133 13.1224 29.0043 13.1224 27.9305V27.8987H13.4067V31.5098H13.1224V31.4899C13.1224 30.436 12.8838 29.8911 12.3409 29.8911H12.1639V33.6713H12.8182C13.7527 33.6713 14.3195 32.7625 14.3195 31.2115V31.1797H14.6038V34.0332L14.6058 34.0292Z" fill="#2B2A2F"/>
<path d="M10.0663 34.0292H7.56283V33.717H7.77958C8.06194 33.717 8.23892 33.5838 8.23892 33.2417V29.9627H6.41149V33.2417C6.41149 33.5858 6.59046 33.717 6.87282 33.717H7.09355V34.0292H4.58804V33.717H4.80678C5.08914 33.717 5.26612 33.5838 5.26612 33.2417V26.4769C5.26612 26.1349 5.08716 25.9977 4.80678 25.9977H4.58804V25.6835H7.09355V25.9977H6.87282C6.59046 25.9977 6.41149 26.1349 6.41149 26.4769V29.5133H8.23892V26.4769C8.23892 26.1349 8.06194 25.9977 7.77958 25.9977H7.56283V25.6835H10.0663V25.9977H9.84761C9.56525 25.9977 9.38827 26.1349 9.38827 26.4769V33.2417C9.38827 33.5858 9.56326 33.717 9.84761 33.717H10.0663V34.0292Z" fill="#2B2A2F"/>
<path d="M4.4528 28.5728H4.17242V28.541C4.17242 27.1987 3.66138 26.0474 3.06682 26.0474H2.81627V33.2398C2.81627 33.5838 2.99523 33.715 3.27561 33.715H3.5361V34.0272H0.959011V33.715H1.20956C1.48994 33.715 1.66692 33.5818 1.66692 33.2398V26.0474H1.44818C0.851632 26.0474 0.340589 27.1232 0.340589 28.541V28.5728H0.0602112V25.6815H4.4528V28.5728Z" fill="#2B2A2F"/>
<path d="M36.024 34.0313H31.88V33.7191H32.1107C32.393 33.7191 32.57 33.5958 32.57 33.2518V26.469C32.57 26.1231 32.393 25.9978 32.1107 25.9978H31.88V25.6836H34.3855V25.9978H34.1648C33.8844 25.9978 33.7054 26.1231 33.7054 26.469V33.6694H34.3239C35.4474 33.6694 35.7397 32.3848 35.7397 31.1997V31.1659H36.022V34.0313H36.024Z" fill="#2B2A2F"/>
<path d="M24.1787 25.9978H24.0971C23.6955 25.9978 23.4887 26.0734 23.3475 26.7574L21.8223 34.093H21.353L20.4025 29.2967H20.3926L19.4242 34.093H18.9549L17.4615 26.5705C17.3681 26.0913 17.2309 25.9958 16.8073 25.9958H16.7755V25.6816H19.0285V25.9958H18.9867C18.6626 25.9958 18.5811 26.0913 18.5811 26.31C18.5811 26.3597 18.591 26.4591 18.6009 26.5188L19.5494 31.6093H19.5713L20.1858 28.2607L19.8636 26.5705C19.7841 26.1529 19.6886 25.9958 19.3526 25.9958H19.2989V25.6816H21.532V25.9958H21.4922C21.0925 25.9958 20.9911 26.137 20.9891 26.4233C20.9891 26.5009 21.003 26.5884 21.0209 26.6838L21.9694 31.5477H21.9913L22.8861 26.6739C22.9001 26.6023 22.908 26.5069 22.908 26.4452C22.908 26.143 22.7967 25.9958 22.3552 25.9958H22.2936V25.6816H24.1807V25.9958L24.1787 25.9978Z" fill="#2B2A2F"/>
<path d="M31.7269 34.0308H25.3617V33.7186H25.4154C25.8469 33.7186 25.9801 33.6053 25.9801 33.3666C25.9801 33.299 25.9642 33.2095 25.9483 33.1161L25.7475 32.0105H24.3297L24.1328 33.1161C24.1129 33.2175 24.101 33.2951 24.101 33.3666C24.101 33.6251 24.2024 33.7186 24.6339 33.7186H24.6737V34.0308H22.89V33.7186H22.9834C23.3513 33.7186 23.5581 33.6351 23.6516 33.1439L25.1012 25.6016H25.6341L27.1255 33.1141C27.2169 33.5655 27.4496 33.7166 27.6465 33.7166H27.8155C28.0959 33.7166 28.2748 33.5933 28.2748 33.2493V26.4666C28.2748 26.1206 28.0959 25.9953 27.8155 25.9953H27.5948V25.6811H30.1003V25.9953H29.8696C29.5872 25.9953 29.4103 26.1206 29.4103 26.4666V33.6669H30.0247C31.1502 33.6669 31.4445 32.3923 31.4445 31.1872V31.1534H31.7269V34.0288V34.0308ZM25.6639 31.6227L25.0395 27.9301H25.0197L24.3933 31.6227H25.6659H25.6639Z" fill="#2B2A2F"/>
<path d="M65.6286 28.5747H65.3462V28.5429C65.3462 27.2007 64.8372 26.0494 64.2406 26.0494H63.9901V33.2417C63.9901 33.5838 64.167 33.721 64.4494 33.721H64.6801V34.0312H62.1427V33.721H62.3834C62.6677 33.721 62.8447 33.5838 62.8447 33.2417V26.0494H62.624C62.0274 26.0494 61.5184 27.1291 61.5184 28.5429V28.5747H61.236V25.6835H65.6306V28.5747H65.6286Z" fill="#2B2A2F"/>
<path d="M60.872 34.0312H56.6046V33.721H56.8333C57.1157 33.721 57.2827 33.5838 57.2827 33.2417V26.4789C57.2827 26.1349 57.1157 25.9977 56.8333 25.9977H56.6046V25.6835H60.872V28.5529H60.5896V28.5211C60.5896 26.8229 60.0726 26.0494 59.128 26.0494H58.4281V29.5133H58.6071C59.138 29.5133 59.3866 29.0023 59.3866 27.9305V27.9006H59.6709V31.5118H59.3866V31.4899C59.3866 30.434 59.1499 29.8911 58.6071 29.8911H58.4281V33.6673H59.0843C60.0189 33.6673 60.5876 32.7605 60.5876 31.2075V31.1757H60.87V34.0292L60.872 34.0312Z" fill="#2B2A2F"/>
<path d="M56.3207 34.0312H52.0534V33.721H52.2821C52.5644 33.721 52.7315 33.5838 52.7315 33.2417V26.4789C52.7315 26.1349 52.5644 25.9977 52.2821 25.9977H52.0534V25.6835H56.3207V28.5529H56.0383V28.5211C56.0383 26.8229 55.5233 26.0494 54.5768 26.0494H53.8768V29.5133H54.0558C54.5867 29.5133 54.8393 29.0023 54.8393 27.9305V27.9006H55.1196V31.5118H54.8393V31.4899C54.8393 30.434 54.5986 29.8911 54.0558 29.8911H53.8768V33.6673H54.533C55.4676 33.6673 56.0363 32.7605 56.0363 31.2075V31.1757H56.3187V34.0292L56.3207 34.0312Z" fill="#2B2A2F"/>
<path d="M46.712 28.5747H46.4317V28.5429C46.4317 27.2007 45.9206 26.0494 45.3221 26.0494H45.0755V33.2417C45.0755 33.5838 45.2505 33.721 45.5329 33.721H45.7536V34.0312H43.2282V33.721H43.4668C43.7492 33.721 43.9262 33.5838 43.9262 33.2417V26.0494H43.7074C43.1089 26.0494 42.6038 27.1291 42.6038 28.5429V28.5747H42.3214V25.6835H46.712V28.5747Z" fill="#2B2A2F"/>
<path d="M42.3096 32.0139C42.3096 33.4894 41.4128 34.0959 40.3669 34.0959C39.6093 34.0959 39.2613 33.8473 38.8974 33.5948L38.7005 34.0323H38.4798V31.1669H38.7622V31.2504C38.7622 33.2627 39.7743 33.7221 40.2834 33.7221C41.0251 33.7221 41.3989 33.1772 41.3989 32.3957C41.3989 31.4373 40.7984 30.7373 39.9294 30.0811C39.142 29.4846 38.4162 28.7508 38.4162 27.5359C38.4162 26.3209 39.1917 25.6229 40.1183 25.6229C40.8879 25.6229 41.2478 25.9391 41.4526 26.1141L41.6634 25.7064H41.8702V28.5858H41.5878V28.5043C41.5878 26.9433 41.1185 25.9988 40.1919 25.9988C39.6272 25.9988 39.2931 26.4124 39.2931 27.0765C39.2931 27.86 39.7544 28.3034 40.6194 28.9735C41.5719 29.7133 42.3096 30.4947 42.3096 32.0139Z" fill="#2B2A2F"/>
<path d="M51.9896 32.8957C51.9896 33.5956 51.7251 34.0967 51.0431 34.0967C50.361 34.0967 50.0687 33.5916 50.017 32.5537L49.9454 31.0006C49.9057 30.1814 49.5915 29.9547 49.1222 29.9547H48.816V33.2456C48.816 33.5877 48.9532 33.7249 49.2355 33.7249H49.506V34.0351H46.9826V33.7249H47.2232C47.5056 33.7249 47.6825 33.5877 47.6825 33.2456V26.4828C47.6825 26.1388 47.5056 26.0016 47.2232 26.0016H46.9826V25.6874H49.2674C50.6474 25.6874 51.5104 26.3973 51.5104 27.7137C51.5104 29.03 50.5559 29.6127 49.7068 29.7777V29.8016C50.4008 29.8732 51.0331 30.3922 51.0729 31.1816L51.1664 33.0031C51.1863 33.3689 51.228 33.4763 51.407 33.4763C51.6138 33.4763 51.6675 33.3172 51.6675 32.7744V32.4721H51.9896V32.8977V32.8957ZM50.3113 27.7335C50.3113 26.4271 49.7943 26.0513 49.0904 26.0513H48.818V29.5689H49.1321C49.8679 29.5689 50.3133 29.0698 50.3133 27.7335H50.3113Z" fill="#2B2A2F"/>
<path d="M90.143 25.9977H89.9203C89.6598 25.9977 89.4491 26.1965 89.4491 26.6041V34.065H89.0414L86.4345 27.493H86.4146V33.1165C86.4146 33.5221 86.6214 33.723 86.8859 33.723H87.1026V34.0332H85.3488V33.723H85.5695C85.828 33.723 86.0408 33.5221 86.0408 33.1165V26.5226C86.0408 26.2323 85.9254 25.9996 85.6311 25.9996H85.3488V25.6855H86.9356L89.0533 31.0604H89.0732V26.6041C89.0732 26.1925 88.8625 25.9977 88.604 25.9977H88.3832V25.6835H90.1411V25.9977H90.143Z" fill="#2B2A2F"/>
<path d="M71.1392 25.9977H70.9125C70.6282 25.9977 70.4512 26.1349 70.4512 26.4789V32.3012C70.4512 33.6076 69.6319 34.0948 68.582 34.0948C67.8363 34.0948 67.0827 33.4823 67.0827 32.3012C67.0827 31.6688 67.4744 31.3964 67.7906 31.3964C68.1067 31.3964 68.3533 31.6251 68.3533 32.0208C68.3533 32.5239 68.059 32.7367 67.6752 32.7904C67.6752 33.2238 68.0073 33.721 68.5701 33.721C69.1328 33.721 69.2998 33.4187 69.2998 32.5199V26.4789C69.2998 26.1349 69.1368 25.9977 68.8524 25.9977H68.5919V25.6835H71.1352V25.9977H71.1392Z" fill="#2B2A2F"/>
<path d="M98.5545 34.0307H92.1734V33.7205H92.237C92.6665 33.7205 92.7978 33.6052 92.7978 33.3646C92.7978 33.297 92.7838 33.2075 92.7679 33.114L92.5691 32.0124H91.1513L90.9544 33.114C90.9345 33.2154 90.9246 33.293 90.9246 33.3646C90.9246 33.6231 91.022 33.7205 91.4535 33.7205H91.4973V34.0307H89.7116V33.7205H89.8051C90.1729 33.7205 90.3817 33.633 90.4752 33.1458L91.9208 25.5995H92.4557L93.9471 33.112C94.0386 33.5634 94.2732 33.7185 94.4721 33.7185H94.6411C94.9215 33.7185 95.0965 33.5912 95.0965 33.2492V26.4665C95.0965 26.1205 94.9215 25.9952 94.6411 25.9952H94.4124V25.681H96.9279V25.9952H96.6912C96.4069 25.9952 96.2299 26.1205 96.2299 26.4665V33.6648H96.8443C97.9698 33.6648 98.2641 32.3922 98.2641 31.1951V31.1613H98.5505V34.0267L98.5545 34.0307ZM92.4876 31.6226L91.8592 27.93H91.8413L91.2169 31.6226H92.4876Z" fill="#2B2A2F"/>
<path d="M85.307 32.8938C85.307 33.5937 85.0426 34.0948 84.3605 34.0948C83.6785 34.0948 83.3862 33.5898 83.3364 32.5518L83.2629 30.9987C83.2251 30.1755 82.9109 29.9528 82.4416 29.9528H82.1374V33.2438C82.1374 33.5858 82.2766 33.723 82.5589 33.723H82.8155V34.0332H80.302V33.723H80.5426C80.825 33.723 81 33.5858 81 33.2438V26.4809C81 26.1409 80.829 25.9997 80.5545 25.9997H80.1151C79.8526 25.9997 79.6955 26.2184 79.6955 26.6062V32.166C79.6955 33.2776 79.3257 34.0968 78.1306 34.0968C76.8599 34.0968 76.1162 33.3193 76.1162 32.166V26.4809C76.1162 26.1369 75.9492 25.9997 75.6688 25.9997H75.4362V25.6855H77.9516V25.9997H77.7209C77.4386 25.9997 77.2715 26.1369 77.2715 26.4809V32.2396C77.2715 33.1781 77.6434 33.6792 78.2737 33.6792C78.9041 33.6792 79.3058 33.2656 79.3058 32.2396V26.6062C79.3058 26.2184 79.1606 25.9997 78.8981 25.9997H78.6376V25.6855H82.5828C83.9628 25.6855 84.8258 26.3954 84.8258 27.7118C84.8258 29.0281 83.8674 29.6108 83.0183 29.7758V29.7997C83.7163 29.8713 84.3486 30.3883 84.3884 31.1797L84.4818 33.0012C84.4997 33.367 84.5415 33.4744 84.7204 33.4744C84.9292 33.4744 84.9809 33.3153 84.9809 32.7725V32.4702H85.3031V32.8958L85.307 32.8938ZM83.6307 27.7316C83.6307 26.4252 83.1157 26.0494 82.4078 26.0494H82.1354V29.567H82.4496C83.1853 29.567 83.6307 29.0679 83.6307 27.7316Z" fill="#2B2A2F"/>
<path d="M75.4578 29.8366C75.4578 32.2089 74.6823 34.092 73.2565 34.092C71.8308 34.092 71.0871 32.2089 71.0871 29.8366C71.0871 27.4643 71.8347 25.619 73.2565 25.619C74.6783 25.619 75.4578 27.4643 75.4578 29.8366ZM74.1672 31.8211V27.874C74.1672 26.4323 73.8431 25.9968 73.2565 25.9968C72.6699 25.9968 72.3696 26.4104 72.3696 27.8998V31.8112C72.3696 33.2012 72.6361 33.7201 73.2565 33.7201C73.8769 33.7201 74.1672 33.1673 74.1672 31.8211Z" fill="#2B2A2F"/>
<path d="M100 33.5197C100 33.8378 99.7674 34.0944 99.5228 34.0944C99.2783 34.0944 99.0436 33.8378 99.0436 33.5197C99.0436 33.2015 99.2743 32.955 99.5228 32.955C99.7714 32.955 100 33.2095 100 33.5197Z" fill="#2B2A2F"/>
</svg>
